<svg width="34" height="40" viewBox="0 0 34 40" fill="none" xmlns="http://www.w3.org/2000/svg">
<path d="M30.9597 27.8917C31.2065 28.0373 31.2814 28.3605 31.1152 28.5939C29.1893 31.2993 26.4315 33.3907 23.2062 34.5831C19.8102 35.8387 16.076 36.0311 12.5551 35.1318C9.03426 34.2326 5.91356 32.2895 3.65406 29.5895C1.39455 26.8896 0.116083 23.576 0.00752927 20.1383C-0.101024 16.7007 0.966095 13.3212 3.05123 10.4993C5.13637 7.67742 8.12893 5.5627 11.5868 4.46758C15.0447 3.37246 18.7845 3.35504 22.2537 4.41788C25.5486 5.42736 28.4336 7.36049 30.5268 9.95313C30.7071 10.1765 30.6514 10.5043 30.4131 10.6643L26.2545 13.4537C26.0341 13.6015 25.7376 13.5506 25.5683 13.3463C24.2366 11.7401 22.4245 10.5417 20.361 9.90947C18.1416 9.22953 15.7491 9.24068 13.537 9.94127C11.3248 10.6419 9.41035 11.9947 8.0764 13.8C6.74245 15.6053 6.05977 17.7673 6.12922 19.9665C6.19866 22.1657 7.01655 24.2855 8.46205 26.0128C9.90755 27.7401 11.904 28.9832 14.1564 29.5585C16.4089 30.1337 18.7978 30.0107 20.9704 29.2074C22.9894 28.461 24.722 27.1638 25.9499 25.4869C26.107 25.2724 26.4006 25.2038 26.6296 25.3388L30.9597 27.8917Z" fill="#FF971D"/>
<path d="M14.209 0.5C14.209 0.223858 14.4328 0 14.709 0H19.7985C20.0747 0 20.2985 0.223858 20.2985 0.5V7H14.209V0.5Z" fill="#FF971D"/>
<path d="M14.209 33H20.2985V39.5C20.2985 39.7761 20.0747 40 19.7985 40H14.709C14.4328 40 14.209 39.7761 14.209 39.5V33Z" fill="#FF971D"/>
</svg>
